<?xml version="1.0" encoding="UTF-8" standalone="no"?>
<!-- Generator: Adobe Illustrator 21.1.0, SVG Export Plug-In . SVG Version: 6.00 Build 0)  -->

<svg
   xmlns:dc="http://purl.org/dc/elements/1.1/"
   xmlns:cc="http://creativecommons.org/ns#"
   xmlns:rdf="http://www.w3.org/1999/02/22-rdf-syntax-ns#"
   xmlns:svg="http://www.w3.org/2000/svg"
   xmlns="http://www.w3.org/2000/svg"
   xmlns:sodipodi="http://sodipodi.sourceforge.net/DTD/sodipodi-0.dtd"
   xmlns:inkscape="http://www.inkscape.org/namespaces/inkscape"
   version="1.1"
   id="Layer_1"
   x="0px"
   y="0px"
   viewBox="0 0 199.8 36.599998"
   xml:space="preserve"
   sodipodi:docname="logo.svg"
   width="199.8"
   height="36.599998"
   inkscape:version="0.92.1 r15371"><metadata
     id="metadata4528"><rdf:RDF><cc:Work
         rdf:about=""><dc:format>image/svg+xml</dc:format><dc:type
           rdf:resource="http://purl.org/dc/dcmitype/StillImage" /><dc:title></dc:title></cc:Work></rdf:RDF></metadata><defs
     id="defs4526" /><sodipodi:namedview
     pagecolor="#ffffff"
     bordercolor="#666666"
     borderopacity="1"
     objecttolerance="10"
     gridtolerance="10"
     guidetolerance="10"
     inkscape:pageopacity="0"
     inkscape:pageshadow="2"
     inkscape:window-width="1920"
     inkscape:window-height="1137"
     id="namedview4524"
     showgrid="false"
     inkscape:zoom="6.1981982"
     inkscape:cx="105.2"
     inkscape:cy="18.099998"
     inkscape:window-x="3832"
     inkscape:window-y="-8"
     inkscape:window-maximized="1"
     inkscape:current-layer="Layer_1" /><style
     type="text/css"
     id="style4485">
	.st0{fill:#F33729;}
	.st1{fill:#3C3C3B;}
	.st2{fill:#FFFFFF;}
</style><g
     id="g4521"
     transform="translate(-5.8000002,-4.5)"><rect
       x="5.8000002"
       y="4.5"
       class="st0"
       width="49.5"
       height="36.599998"
       id="rect4487"
       style="fill:#f33729" /><path
       class="st1"
       d="m 69.5,21.9 v 2.4 h 3.4 v 2.1 H 69.5 V 31 H 66.9 V 19.7 h 6.2 v 2.2 z"
       id="path4489"
       inkscape:connector-curvature="0"
       style="fill:#3c3c3b" /><path
       class="st1"
       d="M 82.6,31 81.9,28.9 H 78 L 77.3,31 h -2.6 l 3.8,-11.2 h 2.9 l 4,11.2 z M 80.4,24.3 C 80.2,23.8 80.1,23.2 80,22.7 v 0 c -0.1,0.5 -0.2,1 -0.4,1.6 l -0.9,2.6 h 2.6 z"
       id="path4491"
       inkscape:connector-curvature="0"
       style="fill:#3c3c3b" /><path
       class="st1"
       d="m 93.3,31.1 c -3.6,0 -5.7,-2.1 -5.7,-5.5 0,-3.6 2.4,-6.1 6.4,-6.1 1.2,0 2.4,0.2 3.2,0.5 l -0.5,2.4 c -0.8,-0.3 -1.8,-0.5 -2.8,-0.5 -2.1,0 -3.4,1.3 -3.4,3.5 0,2.1 1.1,3.4 3.2,3.4 0.4,0 0.8,-0.1 1.1,-0.2 V 25 h 2.6 v 5.4 c -1.3,0.5 -2.7,0.7 -4.1,0.7 z"
       id="path4493"
       inkscape:connector-curvature="0"
       style="fill:#3c3c3b" /><path
       class="st1"
       d="m 103.8,21.9 v 2.4 h 3.4 v 2.1 h -3.4 V 31 h -2.6 V 19.7 h 6.2 v 2.2 z"
       id="path4495"
       inkscape:connector-curvature="0"
       style="fill:#3c3c3b" /><path
       class="st1"
       d="m 115.5,31.2 c -3.5,0 -5.2,-2.2 -5.2,-5.7 0,-3.7 2.5,-6 5.6,-6 3,0 5.2,1.7 5.2,5.7 0,3.7 -2.5,6 -5.6,6 z m 0.2,-9.3 c -1.3,0 -2.6,1 -2.6,3.4 0,2.2 0.8,3.5 2.6,3.5 1.2,0 2.7,-0.9 2.7,-3.5 -0.1,-2.2 -1,-3.4 -2.7,-3.4 z"
       id="path4497"
       inkscape:connector-curvature="0"
       style="fill:#3c3c3b" /><path
       class="st1"
       d="m 129.9,31 -2.6,-4.4 h -0.1 V 31 h -2.6 V 19.7 c 1,-0.1 2.2,-0.1 3.5,-0.1 2.6,0 4.2,0.9 4.2,3.3 0,1.5 -1,2.7 -2.4,3.1 0.3,0.4 0.6,0.9 0.9,1.3 l 2.3,3.6 h -3.2 z m -2,-9.2 c -0.3,0 -0.6,0 -0.7,0 v 2.9 c 0.1,0 0.4,0 0.6,0 1.1,0 1.8,-0.6 1.8,-1.5 0,-0.9 -0.5,-1.4 -1.7,-1.4 z"
       id="path4499"
       inkscape:connector-curvature="0"
       style="fill:#3c3c3b" /><path
       class="st1"
       d="m 139.8,31 c -0.7,0 -1.9,0 -3.6,0 V 19.7 c 1,-0.1 2.7,-0.1 4,-0.1 2.4,0 3.9,1 3.9,2.8 0,1 -0.5,2 -1.5,2.4 V 25 c 1.1,0.3 1.8,1.4 1.8,2.5 0,1.7 -1.3,3.5 -4.6,3.5 z m 0,-9.3 c -0.4,0 -0.7,0 -1,0 v 2.5 c 0.2,0 0.5,0 0.8,0 1.3,0 1.8,-0.5 1.8,-1.4 -0.1,-0.6 -0.5,-1.1 -1.6,-1.1 z m -0.1,4.5 c -0.1,0 -0.7,0 -0.9,0 v 2.6 c 0.2,0 0.6,0.1 1,0.1 1.2,0 1.8,-0.5 1.8,-1.4 0,-0.9 -0.7,-1.3 -1.9,-1.3 z"
       id="path4501"
       inkscape:connector-curvature="0"
       style="fill:#3c3c3b" /><path
       class="st1"
       d="m 152.4,31.2 c -3.6,0 -4.4,-1.9 -4.4,-4.2 v -7.3 h 2.6 v 7.1 c 0,1.3 0.4,2.1 2,2.1 1.5,0 2,-0.6 2,-2.3 v -7 h 2.6 v 6.8 c 0,3.3 -1.8,4.8 -4.8,4.8 z"
       id="path4503"
       inkscape:connector-curvature="0"
       style="fill:#3c3c3b" /><path
       class="st1"
       d="M 167.6,31 165,26.2 c -0.5,-0.9 -0.9,-1.7 -1.2,-2.5 0,0.8 0.1,2 0.1,3 V 31 h -2.5 V 19.7 h 3.3 l 2.5,4.4 c 0.5,0.9 1,1.9 1.4,2.8 -0.1,-1 -0.1,-2.4 -0.1,-3.5 V 19.7 H 171 V 31 Z"
       id="path4505"
       inkscape:connector-curvature="0"
       style="fill:#3c3c3b" /><path
       class="st1"
       d="m 178.6,31 c -1.2,0 -2.3,0 -3.3,-0.1 V 19.7 c 0.9,0 2.3,-0.1 3.8,-0.1 3.4,0 5.6,1.5 5.6,5.5 0,3.9 -2.5,5.9 -6.1,5.9 z m 0.3,-9.2 c -0.4,0 -0.8,0 -1.1,0 v 6.9 c 0.2,0 0.6,0.1 1,0.1 1.8,0 3.1,-1.1 3.1,-3.5 0,-2.1 -0.7,-3.5 -3,-3.5 z"
       id="path4507"
       inkscape:connector-curvature="0"
       style="fill:#3c3c3b" /><path
       class="st1"
       d="M 188.2,31 V 19.7 h 6.3 v 2.2 h -3.7 v 2.2 h 3.5 v 2.1 h -3.5 v 2.5 h 3.7 V 31 Z"
       id="path4509"
       inkscape:connector-curvature="0"
       style="fill:#3c3c3b" /><path
       class="st1"
       d="m 202.9,21.9 v 9 h -2.6 v -9 h -2.7 v -2.2 h 8 v 2.2 z"
       id="path4511"
       inkscape:connector-curvature="0"
       style="fill:#3c3c3b" /><path
       class="st2"
       d="m 16,20.8 c -0.8,0.8 -1.9,2.3 -1.9,4.8 0,0.9 0.1,1.9 0.5,3 -1.7,0 -4.3,0 -4.3,0 V 31 H 18 l -0.6,-1.6 c -1.2,-3.1 -1.1,-5.5 0.4,-6.9 1.1,-1.1 3,-1.4 4.6,-0.7 1.8,0.8 2.8,2.5 2.8,4.7 0,0 0,0.1 0,0.1 h 2.3 c 0,0 0,0 0,-0.1 0,-2.4 1.3,-4.2 3.4,-4.9 2,-0.6 4.1,0 5.1,1.5 0.1,0.1 0.2,0.3 0.2,0.4 -1.3,0.7 -2.5,1.6 -3.5,2.8 -1.9,2.2 -3,5.1 -3,7.9 0,0.7 0.1,1.5 0.2,2.1 l 0.2,0.9 h 3.3 l 0.4,-0.4 c 4,-4.9 5.2,-8.6 5.2,-11.2 0,-0.3 0,-0.5 -0.1,-0.8 1.4,-0.5 3,-0.7 5,-0.7 0,1.6 0,6.8 0,6.8 H 46 V 22 L 45,21.9 C 42.5,21.7 40.2,22 38.2,22.6 38.1,22.3 37.9,22 37.7,21.8 36.1,19.5 32.9,18.5 30,19.4 c -1.4,0.4 -2.8,1.4 -3.8,2.9 -0.7,-1.2 -1.8,-2.1 -3.1,-2.7 -2.5,-1 -5.4,-0.6 -7.1,1.2 z m 15.9,13.4 c 0,-2.2 0.9,-4.5 2.4,-6.3 0.5,-0.6 1.2,-1.3 2.1,-1.8 -0.1,1.9 -1.1,4.8 -4.3,8.9 -0.1,0 -0.1,0 -0.2,0 0,-0.4 0,-0.6 0,-0.8 z"
       id="path4513"
       inkscape:connector-curvature="0"
       style="fill:#ffffff" /><path
       class="st2"
       d="m 19.8,10.6 h -4.6 v 5.3 l 0.6,0.2 c 0.3,0.1 3.2,1.3 4.7,-0.2 1.4,-1.3 0.4,-4.2 0.2,-4.7 l -0.2,-0.6 z m -0.7,1.9 c 0.1,0.5 0.2,1 0.2,1.4 0,0.3 0,0.6 -0.2,0.7 -0.4,0.3 -1.3,0.2 -2.1,0 0,-0.6 0,-1.3 0,-2 0.8,-0.1 1.4,-0.1 2.1,-0.1 z"
       id="path4515"
       inkscape:connector-curvature="0"
       style="fill:#ffffff" /><path
       class="st2"
       d="m 46.5,10.6 h -4.6 v 5.3 l 0.6,0.2 c 0.3,0.1 3.2,1.3 4.7,-0.2 1.4,-1.3 0.4,-4.2 0.2,-4.7 l -0.2,-0.6 z m -0.7,1.9 c 0.1,0.5 0.2,1 0.2,1.4 0,0.3 -0.1,0.6 -0.2,0.7 -0.4,0.3 -1.3,0.2 -2.1,0 0,-0.6 0,-1.3 0,-2 0.8,-0.1 1.5,-0.1 2.1,-0.1 z"
       id="path4517"
       inkscape:connector-curvature="0"
       style="fill:#ffffff" /><path
       class="st2"
       d="m 29.1,10.7 -0.6,0.2 v 5.3 h 5.3 L 34,15.6 c 0.1,-0.3 1.3,-3.2 -0.2,-4.7 -1.3,-1.4 -4.1,-0.4 -4.7,-0.2 z m 3.3,1.5 c 0.2,0.2 0.2,0.5 0.2,0.8 0,0.4 -0.1,0.9 -0.2,1.3 -0.6,0 -1.3,0 -2,0 0,-0.8 0,-1.4 0,-2 0.9,-0.2 1.8,-0.3 2,-0.1 z"
       id="path4519"
       inkscape:connector-curvature="0"
       style="fill:#ffffff" /></g></svg>